<svg xmlns="http://www.w3.org/2000/svg" xmlns:xlink="http://www.w3.org/1999/xlink" viewBox="0 0 2599 660.26"><defs><style>.cls-1{isolation:isolate;}.cls-2{clip-path:url(#clip-path);}.cls-3{fill:none;}.cls-4{fill:url(#linear-gradient);}.cls-5{mask:url(#mask);}.cls-6{fill:#09618d;}.cls-7{fill:#0f9cc2;}</style><clipPath id="clip-path"><rect class="cls-3" x="-9.2" y="-9.19" width="2617.4" height="704.39"/></clipPath><linearGradient id="linear-gradient" x1="-3026.49" y1="-30.32" x2="-3017.29" y2="-30.32" gradientTransform="translate(3238.12 -288082.19) rotate(-90) scale(94.64)" gradientUnits="userSpaceOnUse"><stop offset="0" stop-color="#fff"/><stop offset="1" stop-color="#231f20"/></linearGradient><mask id="mask" x="-2445.6" y="-3837.81" width="5628.42" height="7283.83" maskUnits="userSpaceOnUse"><rect x="-9.2" y="-9.2" width="2617.4" height="704.39"/><g class="cls-1"><g class="cls-2"><rect class="cls-4" x="-2445.6" y="-3837.81" width="5628.42" height="7283.83"/></g></g></mask></defs><g id="Layer_2" data-name="Layer 2"><g id="Layer_1-2" data-name="Layer 1"><g id="Artwork_1" data-name="Artwork 1"><g class="cls-5"><path class="cls-6" d="M1506.65,407.54q-17.2-8-44.45-16-20-6-31-10.61a56.33,56.33,0,0,1-18.43-12,25.29,25.29,0,0,1-7.41-18.62q0-16,9.82-24.44t26.22-8.41q18.83,0,30.24,9.41a32.07,32.07,0,0,1,12.22,23.83h61.68Q1542.69,313,1515.67,292t-70.29-21q-28.83,0-51.26,9.82T1359.27,309q-12.42,18.42-12.41,43.25,0,26.44,12.21,42.26a77.48,77.48,0,0,0,29.24,23.63q17,7.8,44.25,15.82A316,316,0,0,1,1464,444.19a53.74,53.74,0,0,1,19,12.61c5,5.35,7.6,12.16,7.6,20.44q0,15.21-11.21,24.63t-30.85,9.4q-19.23,0-30.23-10T1406.12,474h-60.06q.39,25.64,14,44.45t37,28.84q23.43,10,52.67,10,30.82,0,53.27-11.41t34-30.64a79.06,79.06,0,0,0,11.62-41.66q0-26-12.42-42a79.85,79.85,0,0,0-29.64-24m236.1-64.88q-25-13.61-56.67-13.62-32.85,0-58.08,14a97.82,97.82,0,0,0-39.24,40.05q-14,26-14,60.47,0,34,14.21,60.08a100,100,0,0,0,39.66,40.24q25.42,14.24,57.47,14.22,39.64,0,66.88-20.63t36.85-52.66h-60.48q-13.21,26.84-44.45,26.83-21.62,0-36.45-13.61t-16.82-37.65h162.2a132,132,0,0,0,1.6-21.62q0-32.46-13.81-57.48a96,96,0,0,0-38.85-38.65M1632,422.76q3.21-22.42,17.42-35t35-12.61q22,0,37.25,13t15.61,34.64ZM2218.33,436q-15.61-6.41-39.64-12.41-23.64-6-34.85-11.82t-11.22-17a17.87,17.87,0,0,1,8.22-15.61q8.2-5.61,23.43-5.61,16.41,0,26.24,7.81t11,21h53.68q-2.42-33.64-26-53.47T2165.87,329q-26.84,0-46.66,8.82t-30.44,24a57.63,57.63,0,0,0-10.61,33.65q0,22.44,11.42,35.64a70.44,70.44,0,0,0,27.23,19.63q15.81,6.4,40.64,12.41,24,6.41,35.05,11.82t11,16.21q0,10-9,16.43t-25,6.41q-16.41,0-27.43-8.42t-12.61-21.22H2073a67.67,67.67,0,0,0,13.82,37.25q12.61,16.81,34.24,26.63t48.87,9.81q26.43,0,46.26-8.61t30.43-23.82a58.79,58.79,0,0,0,10.61-34.46q-.39-22-11.81-35.44a70.14,70.14,0,0,0-27-19.82m283.15,2.81q0-32.46-13.8-57.48a96,96,0,0,0-38.86-38.65q-25-13.61-56.67-13.62-32.83,0-58.06,14a97.75,97.75,0,0,0-39.26,40.05q-14,26-14,60.47,0,34,14.21,60.08a100,100,0,0,0,39.65,40.24q25.43,14.24,57.47,14.22,39.66,0,66.89-20.63t36.84-52.66h-60.47q-13.22,26.84-44.45,26.83-21.63,0-36.46-13.61t-16.81-37.65h162.19a132,132,0,0,0,1.6-21.62m-163.39-16q3.19-22.42,17.41-35t35.05-12.61q22,0,37.25,13t15.62,34.64Zm-386.88-93.31a88.79,88.79,0,0,0-38.25,8.21,77.24,77.24,0,0,0-28.63,22.63V332.65h-56.08V554.53h56.08V432q0-26.44,13.41-40.66t36.65-14.22q22.83,0,36,14.22t13.2,40.66V554.53h56.08V424.37q0-44.85-24.43-69.89t-64.08-25"/><rect class="cls-7" x="243.1" y="332.65" width="56.07" height="221.88"/><path class="cls-7" d="M1331.25,438.78q0-32.44-13.82-57.47a95.85,95.85,0,0,0-38.84-38.65q-25-13.62-56.67-13.62-32.85,0-58.08,14a97.79,97.79,0,0,0-39.24,40.06q-14,26-14,60.47,0,34.05,14.21,60.08a100,100,0,0,0,39.66,40.24q25.42,14.22,57.47,14.22,39.64,0,66.88-20.62t36.85-52.67h-60.48q-13.22,26.84-44.45,26.84-21.65,0-36.45-13.62t-16.83-37.65h162.21a133.2,133.2,0,0,0,1.6-21.63m-163.4-16q3.2-22.41,17.43-35t35-12.61q22,0,37.23,13t15.63,34.64Z"/><path class="cls-7" d="M622,329.45a89.55,89.55,0,0,0-44.66,11.61q-20.62,11.61-31.44,30.84a77.16,77.16,0,0,0-31.64-31.44q-20.43-11-46.46-11a86.7,86.7,0,0,0-37.45,8,74.71,74.71,0,0,0-27.83,22V332.65H346.43V554.53H402.5V432q0-26,13.41-39.86t36.65-13.81q22.83,0,36.05,13.81T501.83,432V554.53h56.06V432q0-26,13.42-39.86t36.25-13.81q22.83,0,36,13.81T656.81,432V554.53h56.08V424.37q0-44.85-25-69.89t-65.88-25"/><path class="cls-7" d="M160.6,407.55q-17.21-8-44.45-16-20-6-31-10.61a56.12,56.12,0,0,1-18.42-12,25.25,25.25,0,0,1-7.42-18.63q0-16,9.82-24.43t26.23-8.41q18.83,0,30.24,9.41a32.12,32.12,0,0,1,12.22,23.83h61.67Q196.65,313,169.62,292T99.33,271q-28.85,0-51.27,9.82T13.22,309Q.8,327.46.8,352.27.8,378.7,13,394.53a77.65,77.65,0,0,0,29.24,23.63q17,7.8,44.26,15.82A316.53,316.53,0,0,1,118,444.19a53.53,53.53,0,0,1,19,12.62q7.59,8,7.6,20.42,0,15.22-11.21,24.64t-30.84,9.41q-19.23,0-30.23-10T60.08,474H0q.41,25.64,14,44.45t37.05,28.84q23.43,10,52.66,10,30.84,0,53.27-11.41t34-30.63a79.19,79.19,0,0,0,11.62-41.67q0-26-12.42-42a79.88,79.88,0,0,0-29.64-24"/><rect class="cls-7" x="1021.67" y="258.15" width="56.07" height="296.37"/><path class="cls-7" d="M939,343.07q-23-14-51.46-14-24.43,0-43.46,10.22t-29.83,25.43v-32H758.15V660.26h56.06V522.88q11.61,15.25,30.24,25.24t43,10q28.43,0,51.46-14.42t36.45-40.65q13.43-26.22,13.42-60.27t-13.42-59.88Q962,357.08,939,343.07M923.35,478a59.38,59.38,0,0,1-21.62,22.83,56.49,56.49,0,0,1-57.69.2,58.16,58.16,0,0,1-21.62-22.62q-8.2-14.82-8.21-34.85t8.21-34.85A58.09,58.09,0,0,1,844,386.12a56,56,0,0,1,28.64-7.81,58,58,0,0,1,29.05,7.61,56.9,56.9,0,0,1,21.62,22.22q8.21,14.63,8.21,34.65,0,20.43-8.21,35.24"/><path class="cls-7" d="M310.73,232.24h0a25.18,25.18,0,0,0-35.62,0l-4,4-4-4a25.18,25.18,0,1,0-35.61,35.61l4,4,35.61,35.62,35.62-35.62,4-4a25.19,25.19,0,0,0,0-35.61"/><path class="cls-7" d="M271.09,141v0a143.2,143.2,0,0,0-110.65,52.19,19,19,0,0,0-4.35,12.16A19.38,19.38,0,0,0,161.75,219l.25.26a19.26,19.26,0,0,0,28.48-1.39q3.18-3.84,6.68-7.34a104.56,104.56,0,0,1,147.87,0q3.51,3.51,6.67,7.35a19.27,19.27,0,0,0,28.49,1.39l.24-.26a19.35,19.35,0,0,0,5.67-13.67,19.15,19.15,0,0,0-4.36-12.16A143.2,143.2,0,0,0,271.09,141"/><path class="cls-7" d="M469.18,87.64A267.16,267.16,0,0,0,271.1,0V0A267.13,267.13,0,0,0,73,87.64a19.29,19.29,0,0,0,.61,26.62l.25.26a19.26,19.26,0,0,0,27.87-.69c2.43-2.69,4.93-5.3,7.48-7.86h0A228.93,228.93,0,0,1,433,106c2.54,2.56,5,5.17,7.47,7.86a19.24,19.24,0,0,0,27.86.69l.26-.26a19.3,19.3,0,0,0,.62-26.62"/><path class="cls-7" d="M271.09,68.66v0a208,208,0,0,0-156.3,70.56,19.3,19.3,0,0,0,.84,26.39l.25.24a19.13,19.13,0,0,0,13.57,5.62,19.47,19.47,0,0,0,14.62-6.64c2.3-2.61,4.65-5.13,7.1-7.58a169.61,169.61,0,0,1,239.85,0c2.45,2.45,4.8,5,7.1,7.58a19.45,19.45,0,0,0,14.61,6.64,19.17,19.17,0,0,0,13.58-5.62l.24-.24a19.3,19.3,0,0,0,.84-26.39,208,208,0,0,0-156.3-70.56"/><path class="cls-6" d="M2539.36,255.52v7.72h-14.92v38.91h-9.25V263.24h-14.93v-7.72Zm50.39,46.63L2588,274.73c-.18-3.6-.18-8.07-.34-13h-.52c-1.19,4.12-2.56,9.6-3.93,13.88l-8.41,25.89h-9.6l-8.4-26.58c-.85-3.59-2.22-9.07-3.25-13.19h-.53c0,4.28-.16,8.74-.35,13l-1.7,27.42h-8.91l3.43-46.63h13.88l8.06,22.8c1,3.6,1.89,7,3.08,11.84h.18c1.19-4.3,2.22-8.24,3.25-11.67l8.06-23h13.37l3.59,46.63Z"/></g></g></g></g></svg>