<svg xmlns="http://www.w3.org/2000/svg" viewBox="0 0 522.38 544.55"><defs><style>.cls-1{fill:#0f9cc2;}</style></defs><g id="Layer_2" data-name="Layer 2"><g id="Layer_1-2" data-name="Layer 1"><path class="cls-1" d="M309.12,386.19,270.76,279.24Q237.45,186.46,204.08,93.7c-2-5.41-4.1-10.79-6.56-16-2.12-4.49-5.83-7.52-11-6.66s-7.47,5-7.74,10.06q-.57,10.38-.69,20.76-1.17,119.43-2.26,238.86c-.06,6.22,0,12.44-4,20.2-10-16.3-20-32.63-30.11-48.91-21.89-35.34-22.84-35.36-45.39-1.41-13.77,20.74-11.82,18.54-30.74,1.78-29.39-26-30.1-56.17-23-90.89C62.76,123.43,144.4,47.31,239.56,39.6c103.57-8.4,194.14,48.07,230,144.23,5.87,15.74,8.77,32.61,12.79,49,.48,2,.19,5.29-1.08,6.28-2.87,2.26-5,.23-6.43-2.73-1-2.05-3-3.61-4-5.65-13.69-28.75-24.59-20.66-35.38,2.92-6.39,14-14,27.36-22.77,44.23-6.81-13-12.1-22.94-17.19-32.95-19.34-38-38.5-76.18-58-114.13-3-5.87-6.27-13.68-15.3-10.61-7.77,2.63-6.32,10.17-6.38,16.32q-1.1,111.65-2,223.29c-.08,8.59,0,17.18,0,25.77l-4.72.6"/><path class="cls-1" d="M252.56.05C404.16-2.88,512.47,117.8,521.27,240.18c7.42,103.41-21.76,190.73-106.18,253.29C264.3,605.2,50.33,524.33,8.09,341.3-18.55,225.84,21.57,112.53,114,46.27,157.58,15,206.81-1,252.56.05M261.67,22c-18.44.33-36.78.54-54.94,5.11C46.37,67.44-18.88,245.5,46.2,384.78,105.15,510.94,254.93,560,377,493.27,466.29,444.41,514.67,341.09,499.05,231,480.9,103.12,370.81,17.18,261.67,22"/><path class="cls-1" d="M342.17,188.22c10.85,21.48,20.54,40.89,30.44,60.19,9.75,19,19.26,38.08,29.77,56.62,6.75,11.91,14.89,11.69,21.59-.29,8.73-15.59,16.67-31.63,24.69-47.59,4.06-8.09,7.46-8.34,13.37-1.16,18.13,22.07,25,44.55,17.61,74.44C439.18,494.11,248.42,560.58,120.56,454.26,84,423.87,60.42,384.87,46.73,339.63a45.69,45.69,0,0,1-1.46-8.49c-.11-1,.57-2.14,1.19-4.19,10.84,5.41,16,16,23.65,24,12.41,13,16.28,13,26.61-1.24,4.74-6.53,9.33-13.19,13.63-20,6.57-10.43,11.55-8.28,17.18,1.08,15.75,26.17,31.88,52.11,48,78.07,3.29,5.3,6.35,12.05,14.23,10.38,9.38-2,7.86-10.31,7.9-16.93q.76-113.34,1.23-226.66c0-5.44,0-10.87,0-19,8.07,6.2,8.79,12.65,10.8,18.22,33.22,92.18,66.22,184.42,99.68,276.5,3.27,9,4,24.12,17.54,21.93,14.51-2.37,8.25-17.07,8.37-26.33,1-79,1.21-158,1.82-237,.05-6.11-1.51-12.64,5.08-21.77"/></g></g></svg>