<svg xmlns="http://www.w3.org/2000/svg" viewBox="0 0 2726.57 544.55"><defs><style>.cls-1{fill:#09618d;}.cls-2{fill:#0f9cc2;}</style></defs><g id="Layer_2" data-name="Layer 2"><g id="Layer_1-2" data-name="Layer 1"><g id="Brand_Motto" data-name="Brand Motto"><path class="cls-1" d="M622.81,397V148h26.05q9.35,0,11.8,9.09l3.44,27a139.86,139.86,0,0,1,36.25-29q20-11.05,46.33-11.06,20.4,0,36,6.76A69.46,69.46,0,0,1,808.73,170a84.38,84.38,0,0,1,15.85,29.86A129.72,129.72,0,0,1,830,238.48V397H786.25V238.48q0-28.26-12.91-43.87T733.9,179a73.47,73.47,0,0,0-36.25,9.34,119.08,119.08,0,0,0-31.09,25.31V397Z"/><path class="cls-1" d="M1079,397h-19.41a23.25,23.25,0,0,1-10.33-2q-3.93-2-5.16-8.36l-4.91-23.1q-9.83,8.85-19.17,15.85a110.18,110.18,0,0,1-19.66,11.8,102.29,102.29,0,0,1-22,7.25,126,126,0,0,1-25.93,2.45,88.61,88.61,0,0,1-27.15-4.05,61.86,61.86,0,0,1-22-12.17,57.8,57.8,0,0,1-14.87-20.52q-5.54-12.4-5.53-29.37a54.81,54.81,0,0,1,8.11-28.38q8.12-13.65,26.18-24.21t47.31-17.33q29.24-6.75,71.52-7.74V237.75q0-29-12.42-43.87T986.79,179q-16,0-26.91,4.05A102.46,102.46,0,0,0,941,192.15q-8,5-13.76,9.1a19.87,19.87,0,0,1-11.43,4.05A13.14,13.14,0,0,1,908,203a17.77,17.77,0,0,1-5.28-5.78l-7.87-14q20.65-19.92,44.49-29.74t52.84-9.83q20.88,0,37.11,6.88a76.26,76.26,0,0,1,27.28,19.17,81.18,81.18,0,0,1,16.71,29.74,123.78,123.78,0,0,1,5.65,38.34ZM965.41,370.21a89.18,89.18,0,0,0,21.14-2.33,83.39,83.39,0,0,0,18.06-6.64,95.68,95.68,0,0,0,16.22-10.44,141.85,141.85,0,0,0,15.12-14V284.93q-30.24,1-51.37,4.79t-34.41,10q-13.27,6.13-19.29,14.5a31.16,31.16,0,0,0-6,18.68,41.18,41.18,0,0,0,3.19,16.95,32.13,32.13,0,0,0,8.6,11.68,34,34,0,0,0,12.79,6.63,58,58,0,0,0,16,2.09"/><path class="cls-1" d="M1145.31,397V148h26q9.35,0,11.8,9.09l3.44,27a139.86,139.86,0,0,1,36.25-29q20-11.05,46.33-11.06,20.4,0,36,6.76a69.46,69.46,0,0,1,26,19.17,84.38,84.38,0,0,1,15.85,29.86,129.72,129.72,0,0,1,5.41,38.58V397h-43.74V238.48q0-28.26-12.91-43.87T1256.4,179a73.47,73.47,0,0,0-36.25,9.34,119.08,119.08,0,0,0-31.09,25.31V397Z"/><path class="cls-1" d="M1519.37,144.11q27.27,0,49.27,9.09A103.86,103.86,0,0,1,1606,179q15.36,16.71,23.59,40.43t8.24,53q0,29.49-8.24,53.08T1606,365.79a102.57,102.57,0,0,1-37.36,25.68q-22,9-49.27,9t-49.28-9a103.79,103.79,0,0,1-37.48-25.68q-15.48-16.71-23.84-40.31t-8.35-53.08q0-29.25,8.35-53T1432.61,179a105.11,105.11,0,0,1,37.48-25.81q22-9.09,49.28-9.09m0,222.17q36.86,0,55.05-24.7t18.19-68.94q0-44.47-18.19-69.3t-55.05-24.82q-18.67,0-32.44,6.39a60.54,60.54,0,0,0-23,18.43q-9.23,12-13.77,29.61t-4.54,39.69q0,22.13,4.54,39.57T1464,341.58a61.1,61.1,0,0,0,23,18.31q13.75,6.39,32.44,6.39"/><path class="cls-1" d="M1659.45,148h34.41a13.89,13.89,0,0,1,8.85,2.7,13.63,13.63,0,0,1,4.67,6.39l47.68,160.24q2,8.85,3.68,17.08t3,16.59q2-8.35,4.43-16.59t5.16-17.08l52.59-161.22a13,13,0,0,1,4.3-6.14,12,12,0,0,1,7.74-2.46h18.93A12.9,12.9,0,0,1,1863,150a12.61,12.61,0,0,1,4.42,6.14l51.37,161.22q2.7,8.61,4.79,17t4,16.47q1.25-8.12,3.2-17t4.18-16.47l48.66-160.24a12.77,12.77,0,0,1,4.67-6.51,13.14,13.14,0,0,1,8.11-2.58h32.93l-80.61,249h-34.65q-6.39,0-8.85-8.36l-55-168.84a94.6,94.6,0,0,1-3.2-11.42q-1.21-5.77-2.45-11.43-1.23,5.66-2.46,11.55a91.37,91.37,0,0,1-3.2,11.55l-55.78,168.59Q1780.37,397,1773,397h-32.93Z"/><path class="cls-1" d="M2167,144.11a111.26,111.26,0,0,1,41.29,7.49,92.75,92.75,0,0,1,32.69,21.63q13.77,14.13,21.5,34.9t7.75,47.31q0,10.32-2.22,13.76c-1.47,2.3-4.26,3.44-8.35,3.44H2094q.5,23.6,6.39,41.05t16.22,29.12a65,65,0,0,0,24.58,17.45,84.39,84.39,0,0,0,32,5.78q16.45,0,28.38-3.81A135.19,135.19,0,0,0,2222,354a157,157,0,0,0,14.37-8.23q5.78-3.81,10-3.81a9.61,9.61,0,0,1,8.36,4.18l12.29,16a82.89,82.89,0,0,1-19.42,17.08,120.18,120.18,0,0,1-24.2,11.92,153.35,153.35,0,0,1-26.67,7,163.51,163.51,0,0,1-27.28,2.33,126.66,126.66,0,0,1-47.55-8.72,104.51,104.51,0,0,1-37.61-25.56q-15.84-16.83-24.7-41.66t-8.84-57a145.19,145.19,0,0,1,8-48.66,114.89,114.89,0,0,1,23-39.2,105.84,105.84,0,0,1,36.62-26.05q21.63-9.47,48.66-9.46m1,32.19q-31.71,0-49.89,18.31t-22.61,50.75h135.41a88.71,88.71,0,0,0-4.17-27.89,62.27,62.27,0,0,0-12.29-21.87,55,55,0,0,0-19.79-14.26,66.68,66.68,0,0,0-26.66-5"/><path class="cls-1" d="M2508.82,397h-19.41a23.17,23.17,0,0,1-10.32-2q-3.95-2-5.16-8.36l-4.92-23.1q-9.83,8.85-19.17,15.85a110.18,110.18,0,0,1-19.66,11.8,102.29,102.29,0,0,1-22,7.25,126,126,0,0,1-25.92,2.45,88.63,88.63,0,0,1-27.16-4.05,61.86,61.86,0,0,1-22-12.17,57.92,57.92,0,0,1-14.87-20.52q-5.52-12.4-5.53-29.37a54.81,54.81,0,0,1,8.11-28.38q8.11-13.65,26.18-24.21t47.31-17.33q29.23-6.75,71.52-7.74V237.75q0-29-12.42-43.87T2416.66,179q-16,0-26.91,4.05a102,102,0,0,0-18.92,9.09q-8,5-13.77,9.1a19.86,19.86,0,0,1-11.42,4.05,13.19,13.19,0,0,1-7.75-2.33,17.77,17.77,0,0,1-5.28-5.78l-7.87-14q20.66-19.92,44.49-29.74t52.84-9.83q20.88,0,37.11,6.88a76.17,76.17,0,0,1,27.28,19.17,81.18,81.18,0,0,1,16.71,29.74,123.78,123.78,0,0,1,5.65,38.34Zm-113.54-26.79a89.18,89.18,0,0,0,21.14-2.33,83.39,83.39,0,0,0,18.06-6.64,95.68,95.68,0,0,0,16.22-10.44,141.85,141.85,0,0,0,15.12-14V284.93q-30.24,1-51.37,4.79t-34.41,10q-13.27,6.13-19.29,14.5a31.16,31.16,0,0,0-6,18.68,41.18,41.18,0,0,0,3.19,16.95,32,32,0,0,0,8.61,11.68,33.85,33.85,0,0,0,12.78,6.63,58,58,0,0,0,16,2.09"/><path class="cls-1" d="M2575.18,397V148h25.07q7.13,0,9.83,2.7t3.69,9.34l2.95,38.84q12.78-26.05,31.58-40.68t44.11-14.62a69.26,69.26,0,0,1,18.68,2.33,65,65,0,0,1,15.48,6.52l-5.65,32.68q-1.73,6.15-7.62,6.15-3.43,0-10.57-2.34t-19.9-2.33q-22.86,0-38.22,13.27t-25.68,38.58V397Z"/><path class="cls-2" d="M309.12,386.19,270.76,279.24Q237.45,186.46,204.08,93.7c-2-5.41-4.1-10.79-6.56-16-2.12-4.49-5.83-7.52-11-6.66s-7.47,5-7.74,10.06q-.57,10.38-.69,20.76-1.17,119.43-2.26,238.86c-.06,6.22,0,12.44-4,20.2-10-16.3-20-32.63-30.11-48.91-21.89-35.34-22.84-35.36-45.39-1.41-13.77,20.74-11.82,18.54-30.74,1.78-29.39-26-30.1-56.17-23-90.89C62.76,123.43,144.4,47.31,239.56,39.6c103.57-8.4,194.14,48.07,230,144.23,5.87,15.74,8.77,32.61,12.79,49,.48,2,.19,5.29-1.08,6.28-2.87,2.26-5,.23-6.43-2.73-1-2.05-3-3.61-4-5.65-13.69-28.75-24.59-20.66-35.38,2.92-6.39,14-14,27.36-22.77,44.23-6.81-13-12.1-22.94-17.19-32.95-19.34-38-38.5-76.18-58-114.13-3-5.87-6.27-13.68-15.3-10.61-7.77,2.63-6.32,10.17-6.38,16.32q-1.1,111.65-2,223.29c-.08,8.59,0,17.18,0,25.77l-4.72.6"/><path class="cls-2" d="M252.56.05C404.16-2.88,512.47,117.8,521.27,240.18c7.42,103.41-21.76,190.73-106.18,253.29C264.3,605.2,50.33,524.33,8.09,341.3-18.55,225.84,21.57,112.53,114,46.27,157.58,15,206.81-1,252.56.05M261.67,22c-18.44.33-36.78.54-54.94,5.11C46.37,67.44-18.88,245.5,46.2,384.78,105.15,510.94,254.93,560,377,493.27,466.29,444.41,514.67,341.09,499.05,231,480.9,103.12,370.81,17.18,261.67,22"/><path class="cls-2" d="M342.17,188.22c10.85,21.48,20.54,40.89,30.44,60.19,9.75,19,19.26,38.08,29.77,56.62,6.75,11.91,14.89,11.69,21.59-.29,8.73-15.59,16.67-31.63,24.69-47.59,4.06-8.09,7.46-8.34,13.37-1.16,18.13,22.07,25,44.55,17.61,74.44C439.18,494.11,248.42,560.58,120.56,454.26,84,423.87,60.42,384.87,46.73,339.63a45.69,45.69,0,0,1-1.46-8.49c-.11-1,.57-2.14,1.19-4.19,10.84,5.41,16,16,23.65,24,12.41,13,16.28,13,26.61-1.24,4.74-6.53,9.33-13.19,13.63-20,6.57-10.43,11.55-8.28,17.18,1.08,15.75,26.17,31.88,52.11,48,78.07,3.29,5.3,6.35,12.05,14.23,10.38,9.38-2,7.86-10.31,7.9-16.93q.76-113.34,1.23-226.66c0-5.44,0-10.87,0-19,8.07,6.2,8.79,12.65,10.8,18.22,33.22,92.18,66.22,184.42,99.68,276.5,3.27,9,4,24.12,17.54,21.93,14.51-2.37,8.25-17.07,8.37-26.33,1-79,1.21-158,1.82-237,.05-6.11-1.51-12.64,5.08-21.77"/></g></g></g></svg>